<svg version="1.1" id="Layer_1" xmlns="http://www.w3.org/2000/svg" xmlns:xlink="http://www.w3.org/1999/xlink" x="0px" y="0px"
	 width="100%" viewBox="0 0 1074 1032" enable-background="new 0 0 1074 1032" xml:space="preserve">
<path fill="#FFFFFF" opacity="1.000000" stroke="none" 
	d="
M1074.619873,521.898254 
	C1075.000000,690.764160 1074.980103,859.528320 1075.116699,1028.292358 
	C1075.120117,1032.432007 1074.179443,1033.108154 1070.211182,1033.105591 
	C886.453308,1032.984131 702.695312,1033.000000 518.468628,1033.000000 
	C519.460388,1028.686279 523.469604,1026.580688 526.375610,1023.565735 
	C535.484863,1014.114807 536.330505,1015.425476 526.356201,1005.506470 
	C512.538696,991.765442 498.586395,978.152222 485.044403,964.143494 
	C432.273346,909.553955 377.575073,856.876831 324.571472,802.529358 
	C277.361755,754.122742 228.761490,707.106689 181.643631,658.626282 
	C142.066879,617.905151 101.519791,578.162659 61.620445,537.770630 
	C60.116638,536.248230 58.301571,534.929688 57.801163,532.289978 
	C58.050804,531.734131 58.248295,531.559570 58.809196,531.210510 
	C64.265152,529.389893 69.444725,530.653687 74.574928,530.648560 
	C134.226608,530.589294 193.892822,529.785522 253.526260,530.830261 
	C320.320862,532.000427 387.108337,530.834106 453.888428,531.772217 
	C473.520599,532.047913 493.154205,532.568909 512.793030,532.601746 
	C519.409241,532.612793 519.579468,532.423462 519.603027,525.948547 
	C519.624268,520.116821 519.552979,514.283875 519.620178,508.453461 
	C519.661682,504.850098 518.070435,503.232880 514.498657,503.391724 
	C513.003296,503.458191 511.500183,503.389862 510.000580,503.389832 
	C457.180481,503.389282 404.344727,504.200134 351.544250,503.182495 
	C286.738525,501.933472 221.930832,503.482452 157.150909,502.131500 
	C126.500183,501.492249 95.864784,501.916656 65.228127,501.363922 
	C62.805740,501.320221 59.491928,502.237579 58.347763,499.766724 
	C57.140575,497.159729 60.160458,495.426270 61.847771,493.736237 
	C106.349182,449.164551 150.460373,404.191467 195.556488,360.228699 
	C238.985977,317.890656 281.218475,274.361877 324.611847,232.001190 
	C381.244141,176.716660 436.769806,120.323761 493.032806,64.671783 
	C504.869110,52.963974 517.236328,41.809784 528.285278,29.306709 
	C538.398865,17.862177 535.773010,19.820778 527.802307,11.228245 
	C525.007812,8.215710 521.280823,5.968828 519.907043,1.411225 
	C703.425049,1.000000 886.850098,1.017777 1070.275024,0.885730 
	C1074.377686,0.882776 1075.111084,1.766657 1075.108154,5.771337 
	C1074.982300,175.868378 1075.000000,345.965546 1075.000000,516.531372 
	C1072.150879,517.485291 1070.853149,515.186707 1069.308105,513.612000 
	C1056.240601,500.293060 1042.910645,487.236786 1029.889893,473.866638 
	C1019.214600,462.904938 1008.597412,451.870941 997.752319,441.065063 
	C959.031860,402.484558 920.032776,364.172546 881.870667,325.045441 
	C832.542480,274.469879 781.827576,225.278595 732.515137,174.702011 
	C684.590698,125.548927 635.661133,77.407394 587.263245,28.732189 
	C580.459595,21.889566 573.523987,15.199677 567.205261,7.891975 
	C564.188293,4.402821 562.887512,4.318687 559.995850,7.633992 
	C552.982117,15.675246 545.153503,22.942928 538.139282,30.991180 
	C535.414795,34.117298 534.253357,37.274048 534.264282,41.348976 
	C534.355225,75.344742 534.316345,109.340858 534.316284,143.336868 
	C534.316101,259.656555 534.290039,375.976288 534.368347,492.295898 
	C534.374329,501.134888 533.117188,509.874176 533.250610,518.729553 
	C535.634399,677.017395 533.694275,835.315857 534.245544,993.608826 
	C534.263062,998.632019 535.602844,1002.541504 539.294067,1006.029480 
	C545.953247,1012.321899 552.406799,1018.842407 558.739197,1025.465576 
	C561.364441,1028.211426 563.521179,1028.877319 566.032349,1025.611694 
	C566.334473,1025.218750 566.730469,1024.897339 567.086853,1024.546753 
	C634.563171,958.176208 701.042175,890.798645 768.501526,824.417419 
	C818.624939,775.095093 867.679260,724.701782 918.109619,675.704407 
	C968.668701,626.582092 1017.886353,576.125610 1068.047974,526.612366 
	C1069.909668,524.774719 1071.467651,522.487793 1074.619873,521.898254 
z"/>
<path fill="#FFFFFF" opacity="1.000000" stroke="none" 
	d="
M512.125366,1032.666504 
	C343.238647,1033.000000 174.477310,1032.980347 5.716070,1033.115479 
	C1.594674,1033.118896 0.890171,1032.205933 0.893091,1028.219849 
	C1.017440,858.459106 1.000000,688.698181 1.000000,518.468628 
	C3.265494,517.375549 4.322105,519.200073 5.530539,520.417664 
	C18.899212,533.887756 32.473236,547.148254 45.460953,561.004639 
	C52.848434,568.886169 60.577259,576.478455 68.238358,584.117432 
	C106.111809,621.881592 144.303436,659.338135 181.621750,697.644714 
	C232.530899,749.902161 284.980621,800.622375 335.865204,852.887878 
	C384.322449,902.660278 434.037231,951.168335 482.745758,1000.681213 
	C491.840881,1009.926514 500.620972,1019.489136 509.804169,1028.657349 
	C510.858704,1029.710083 511.982513,1030.744385 512.125366,1032.666504 
z"/>
<path fill="#FFFFFF" opacity="1.000000" stroke="none" 
	d="
M1.333634,512.125732 
	C1.000000,343.238678 1.019584,174.477371 0.884440,5.716161 
	C0.881140,1.595052 1.793631,0.890144 5.779958,0.893071 
	C175.207458,1.017479 344.635071,1.000000 514.531372,1.000000 
	C515.493896,3.653474 513.312683,4.801406 511.876740,6.240016 
	C476.914368,41.267448 442.331635,76.687515 406.814056,111.143768 
	C358.615265,157.902206 312.062561,206.307480 263.913483,253.098312 
	C211.693253,303.845398 161.134003,356.258331 108.925453,406.999359 
	C74.511955,440.445526 40.998184,474.778656 6.758344,508.388123 
	C5.235407,509.882996 3.955063,511.744781 1.333634,512.125732 
z"/>
<path fill="#000000" opacity="1.000000" stroke="none" 
	d="
M1075.000000,521.583374 
	C1073.765259,523.065430 1072.456909,524.057007 1071.306519,525.206848 
	C1025.689209,570.802063 980.499573,616.834717 934.371887,661.907532 
	C881.943970,713.136353 830.936951,765.788513 778.403931,816.894226 
	C728.370117,865.568726 679.895569,915.802307 629.821838,964.417419 
	C607.959839,985.642700 586.607544,1007.365356 564.904663,1028.741089 
	C562.517822,1031.091919 561.528809,1030.470947 559.622437,1028.489990 
	C552.473328,1021.061523 545.241638,1013.707520 537.867004,1006.503601 
	C534.578491,1003.291260 533.067322,999.873901 533.069702,995.100525 
	C533.136658,859.607727 533.071045,724.114929 532.984558,588.622070 
	C532.970520,566.627136 532.781982,544.637939 532.244446,522.641235 
	C531.756348,502.668457 532.947510,482.661041 532.958496,462.668640 
	C533.035889,321.841217 533.016663,181.013702 532.912109,40.186302 
	C532.909180,36.240780 533.833008,33.289223 536.597229,30.465464 
	C544.620056,22.269674 552.589355,14.006309 560.213379,5.443284 
	C562.933044,2.388638 564.541016,2.946740 566.870483,5.444894 
	C572.453247,11.431866 577.809143,17.593891 583.653809,23.382187 
	C627.461365,66.767143 671.382874,110.050919 714.454163,154.161819 
	C762.604980,203.474854 812.068176,251.475769 860.163940,300.828308 
	C909.778809,351.739594 960.660400,401.381744 1010.456543,452.102966 
	C1031.698853,473.739929 1052.956177,495.360199 1074.668701,516.929688 
	C1075.000000,518.388916 1075.000000,519.777771 1075.000000,521.583374 
z"/>
<path fill="#000000" opacity="1.000000" stroke="none" 
	d="
M1.000005,512.428467 
	C2.226634,510.942566 3.526415,509.958374 4.669098,508.816895 
	C28.713846,484.797821 52.511795,460.526581 76.817116,436.774475 
	C134.940247,379.974182 191.702316,321.802460 249.782944,264.970459 
	C299.655823,216.169800 348.170715,166.009964 398.264496,117.451904 
	C437.601746,79.320595 475.790100,40.052212 514.929565,1.331289 
	C516.388916,1.000000 517.777771,1.000000 519.583374,0.999994 
	C524.953735,6.122916 529.796570,11.360093 534.907166,16.321430 
	C537.531067,18.868685 537.422607,21.063763 535.219971,23.611395 
	C523.467346,37.204666 511.239563,50.329159 497.537079,62.010204 
	C496.399048,62.980347 495.395111,64.108383 494.334625,65.168816 
	C448.254395,111.247665 402.607117,157.770035 355.978851,203.287476 
	C304.835236,253.212662 255.170944,304.618652 203.905884,354.402374 
	C155.500839,401.408752 108.433693,449.744354 60.384628,497.099060 
	C59.608250,497.864227 58.913528,498.712280 57.664288,500.092010 
	C76.000565,500.092010 93.580482,499.987213 111.158760,500.112518 
	C156.457657,500.435394 201.755280,500.968079 247.054520,501.203522 
	C274.038849,501.343811 301.046570,500.364746 328.005859,501.164795 
	C370.042664,502.412292 412.078186,501.595917 454.110107,502.198578 
	C474.425262,502.489868 494.751892,502.197540 515.069641,501.910187 
	C519.292542,501.850464 520.867493,502.802490 520.645874,507.334564 
	C520.265503,515.110474 520.481873,522.923035 520.668274,530.714966 
	C520.731384,533.353455 519.984375,534.053955 517.321594,533.978455 
	C503.552368,533.587769 489.782745,533.920898 475.995941,533.531494 
	C449.200836,532.774841 422.374878,533.054810 395.561523,533.014832 
	C357.579468,532.958130 319.583160,533.648071 281.618958,532.822693 
	C241.750504,531.955933 201.886337,532.194763 162.022049,531.829041 
	C131.713394,531.550903 101.398834,531.938660 71.086838,531.979187 
	C66.708427,531.985046 62.329632,531.705017 57.611488,531.924927 
	C58.514336,533.359680 59.832886,534.350586 60.988064,535.505005 
	C95.635292,570.128784 130.651245,604.394165 164.808167,639.495422 
	C213.796387,689.838135 264.309906,738.659729 313.298920,788.985413 
	C362.129883,839.148743 412.319702,887.948669 461.311279,937.940613 
	C484.984344,962.097046 508.662140,986.244629 532.665710,1010.071289 
	C535.749084,1013.131958 536.094177,1015.830078 532.740234,1018.790100 
	C527.772949,1023.174316 523.878357,1028.709106 518.106323,1032.673218 
	C516.285645,1033.000000 514.571289,1033.000000 512.428467,1033.000000 
	C504.875732,1025.704590 497.715881,1018.443420 490.645691,1011.095886 
	C488.020081,1008.367249 485.745941,1005.295288 483.072693,1002.618469 
	C438.914124,958.401001 394.301697,914.627686 350.639191,869.926392 
	C301.016418,819.122864 250.049118,769.663208 200.485901,718.815979 
	C153.073563,670.175354 104.597282,622.604858 56.839634,574.315002 
	C38.377296,555.646851 20.059162,536.835999 1.337661,518.045105 
	C1.000000,516.285645 1.000000,514.571289 1.000005,512.428467 
z"/>
<path fill="#FFFFFF" opacity="1.000000" stroke="none" 
	d="
M902.997803,504.096497 
	C864.009949,504.026947 825.511169,504.523163 787.037048,503.767639 
	C724.689758,502.543243 662.341736,503.592072 599.998840,502.856049 
	C589.238953,502.729034 578.483459,502.159912 567.724060,502.094543 
	C564.644409,502.075836 564.239136,500.849304 564.244019,498.287750 
	C564.261658,488.956024 564.028931,479.623932 564.029907,470.291992 
	C564.044495,332.803436 564.081665,195.314880 564.113342,57.826332 
	C564.114136,54.219223 564.113403,50.612110 564.113403,45.903969 
	C716.476746,199.297394 868.049805,351.895233 1020.389587,505.264923 
	C980.851929,504.098389 942.176270,503.789642 902.997803,504.096497 
z"/>
<path fill="#FFFFFF" opacity="1.000000" stroke="none" 
	d="
M823.765625,727.733337 
	C737.259277,813.900940 651.002014,899.812134 564.701111,985.766907 
	C563.359375,984.650818 564.037415,983.234558 564.037109,982.047913 
	C563.998230,834.248047 564.016907,686.448120 563.910339,538.648315 
	C563.907471,534.735840 564.853271,533.829407 568.773621,533.854919 
	C604.424866,534.086792 640.090942,533.481445 675.726379,534.286316 
	C709.853333,535.057190 743.969727,534.712830 778.089844,534.936462 
	C808.242493,535.134094 838.411377,534.563660 868.546143,535.356812 
	C906.064575,536.344299 943.573975,535.542114 981.084717,535.940735 
	C992.869324,536.065918 1004.656372,535.960266 1017.387085,537.117310 
	C1016.009277,538.160400 1014.499512,539.068298 1013.272583,540.265930 
	C951.768433,600.299927 891.265686,661.341309 830.417297,722.035217 
	C828.440552,724.006958 826.155884,725.669983 823.765625,727.733337 
z"/>
<path fill="#FFFFFF" opacity="1.000000" stroke="none" 
	d="
M57.313866,532.281555 
	C57.489338,532.043091 57.706715,531.793579 57.924080,531.544067 
	C57.854820,531.702148 57.785572,531.860291 57.493774,532.161011 
	C57.271233,532.303650 57.355770,532.270569 57.313866,532.281555 
z"/>
</svg>